<svg width="16" height="16" viewBox="0 0 16 16" fill="none" xmlns="http://www.w3.org/2000/svg">
<path fill-rule="evenodd" clip-rule="evenodd" d="M8.00033 2.66732C6.89576 2.66732 6.00033 3.56275 6.00033 4.66732C6.00033 5.77189 6.89576 6.66732 8.00033 6.66732C9.10489 6.66732 10.0003 5.77189 10.0003 4.66732C10.0003 3.56275 9.1049 2.66732 8.00033 2.66732ZM4.66699 4.66732C4.66699 2.82637 6.15938 1.33398 8.00033 1.33398C9.84127 1.33398 11.3337 2.82637 11.3337 4.66732C11.3337 6.50827 9.84128 8.00065 8.00033 8.00065C6.15938 8.00065 4.66699 6.50827 4.66699 4.66732ZM3.6433 10.3103C4.26842 9.68517 5.11627 9.33398 6.00033 9.33398H10.0003C10.8844 9.33398 11.7322 9.68517 12.3573 10.3103C12.9825 10.9354 13.3337 11.7833 13.3337 12.6673V14.0007C13.3337 14.3688 13.0352 14.6673 12.667 14.6673C12.2988 14.6673 12.0003 14.3688 12.0003 14.0007V12.6673C12.0003 12.1369 11.7896 11.6282 11.4145 11.2531C11.0395 10.878 10.5308 10.6673 10.0003 10.6673H6.00033C5.46989 10.6673 4.96118 10.878 4.58611 11.2531C4.21104 11.6282 4.00033 12.1369 4.00033 12.6673V14.0007C4.00033 14.3688 3.70185 14.6673 3.33366 14.6673C2.96547 14.6673 2.66699 14.3688 2.66699 14.0007V12.6673C2.66699 11.7833 3.01818 10.9354 3.6433 10.3103Z" fill="#0D2744"/>
</svg>
