<svg width="16" height="16" viewBox="0 0 16 16" fill="none" xmlns="http://www.w3.org/2000/svg">
<g clip-path="url(#clip0_4682_3081)">
<path fill-rule="evenodd" clip-rule="evenodd" d="M6.22108 2.22075C6.06464 2.37719 5.99967 2.5495 5.99967 2.66602V3.33268H9.99967V2.66602C9.99967 2.5495 9.93471 2.37719 9.77827 2.22075C9.62183 2.06432 9.44952 1.99935 9.33301 1.99935H6.66634C6.54983 1.99935 6.37751 2.06432 6.22108 2.22075ZM11.333 3.33268V2.66602C11.333 2.11586 11.0646 1.62151 10.7211 1.27794C10.3775 0.93438 9.88316 0.666016 9.33301 0.666016H6.66634C6.11619 0.666016 5.62183 0.93438 5.27827 1.27794C4.93471 1.62151 4.66634 2.11586 4.66634 2.66602V3.33268H1.99967C1.63148 3.33268 1.33301 3.63116 1.33301 3.99935C1.33301 4.36754 1.63148 4.66602 1.99967 4.66602H2.66634V13.3327C2.66634 13.8828 2.93471 14.3772 3.27827 14.7208C3.62183 15.0643 4.11619 15.3327 4.66634 15.3327H11.333C11.8832 15.3327 12.3775 15.0643 12.7211 14.7208C13.0646 14.3772 13.333 13.8828 13.333 13.3327V4.66602H13.9997C14.3679 4.66602 14.6663 4.36754 14.6663 3.99935C14.6663 3.63116 14.3679 3.33268 13.9997 3.33268H11.333ZM3.99967 4.66602V13.3327C3.99967 13.4492 4.06464 13.6215 4.22108 13.7779C4.37751 13.9344 4.54983 13.9993 4.66634 13.9993H11.333C11.4495 13.9993 11.6218 13.9344 11.7783 13.7779C11.9347 13.6215 11.9997 13.4492 11.9997 13.3327V4.66602H3.99967ZM6.66634 6.66602C7.03453 6.66602 7.33301 6.96449 7.33301 7.33268V11.3327C7.33301 11.7009 7.03453 11.9993 6.66634 11.9993C6.29815 11.9993 5.99967 11.7009 5.99967 11.3327V7.33268C5.99967 6.96449 6.29815 6.66602 6.66634 6.66602ZM9.33301 6.66602C9.7012 6.66602 9.99967 6.96449 9.99967 7.33268V11.3327C9.99967 11.7009 9.7012 11.9993 9.33301 11.9993C8.96482 11.9993 8.66634 11.7009 8.66634 11.3327V7.33268C8.66634 6.96449 8.96482 6.66602 9.33301 6.66602Z" fill="#EF4444"/>
</g>
<defs>
<clipPath id="clip0_4682_3081">
<rect width="16" height="16" fill="white"/>
</clipPath>
</defs>
</svg>
